<?xml version="1.0" encoding="utf-8"?>
<!-- Generator: Adobe Illustrator 22.0.1, SVG Export Plug-In . SVG Version: 6.00 Build 0)  -->
<svg version="1.1" id="Calque_1" xmlns="http://www.w3.org/2000/svg" xmlns:xlink="http://www.w3.org/1999/xlink" x="0px" y="0px"
	 viewBox="0 0 400 400" style="enable-background:new 0 0 400 400;" xml:space="preserve">
<style type="text/css">
	.st0{fill:#FFD4EB;}
	.st1{stroke:#000000;stroke-miterlimit:10;}
</style>
<g>
	<ellipse class="st0" cx="163.2" cy="200.6" rx="46.3" ry="30.9"/>
	<path d="M50.1,159.9H59l20.7,52.6l20.6-52.6l8.8,0.1v62.6h-8.8v-30.1c0-4.7,0.1-8.8,0.4-12.7L83.8,222h-8.4l-16.8-41.9
		c0.3,3.6,0.4,7.7,0.4,12.4v30.1h-8.8V159.9z"/>
	<g>
		<path class="st1" d="M145.3,185.1c9,0,15.2,6.3,15.2,15.7c0,9.4-6.2,15.6-15.2,15.6c-9,0-15.2-6.3-15.2-15.6
			C130,191.3,136.2,185.1,145.3,185.1z M145.2,211.5c5.6,0,9.3-4.2,9.3-10.7c0-6.5-3.8-10.8-9.3-10.8s-9.3,4.3-9.3,10.8
			C135.9,207.2,139.7,211.5,145.2,211.5z"/>
		<path class="st1" d="M181.2,185.1c9,0,15.2,6.3,15.2,15.7c0,9.4-6.2,15.6-15.2,15.6c-9,0-15.2-6.3-15.2-15.6
			C165.9,191.3,172.1,185.1,181.2,185.1z M181.1,211.5c5.6,0,9.3-4.2,9.3-10.7c0-6.5-3.8-10.8-9.3-10.8c-5.6,0-9.3,4.3-9.3,10.8
			C171.8,207.2,175.5,211.5,181.1,211.5z"/>
	</g>
	<path d="M257.8,200.9c0,14.1-7.5,23.1-19.1,23.1c-5.9,0-10.9-2.4-13.7-6.9l-0.4,5.6H217v-62.7h8.6v23.8c2.7-3.8,7.4-6.2,13-6.2
		C250,177.5,257.8,186.4,257.8,200.9z M249,200.9c0-9.6-4.2-15.7-11.8-15.7c-7,0-11.7,5.3-11.7,15.6c0,10.4,4.7,15.5,11.7,15.5
		C244.7,216.3,249,210.4,249,200.9z"/>
	<path d="M288.5,177.5c13.3,0,22.5,9.3,22.5,23.3c0,13.9-9.2,23.2-22.5,23.2c-13.4,0-22.6-9.3-22.6-23.2
		C265.9,186.8,275.1,177.5,288.5,177.5z M288.4,216.6c8.2,0,13.8-6.3,13.8-15.8c0-9.6-5.6-16-13.8-16s-13.8,6.4-13.8,16
		C274.6,210.3,280.2,216.6,288.4,216.6z"/>
	<path d="M328.9,200.7l-14.2-21.8h9.9l3.4,5.6c1.8,3.1,4.3,7.3,6.4,10.9l10-16.5h9.6L340,200.7l14.2,21.9h-9.8l-3.2-5
		c-2-3-4.8-7.5-6.9-11.1l-9.9,16.2h-9.6L328.9,200.7z"/>
</g>
</svg>
